<svg width="335" height="269" viewBox="0 0 335 269" fill="none" xmlns="http://www.w3.org/2000/svg">
<g clip-path="url(#clip0_102_1878)">
<path fill-rule="evenodd" clip-rule="evenodd" d="M160.501 106.347C166.631 106.347 172.424 104.898 177.553 102.323C181.329 113.683 190.312 122.666 201.672 126.441C199.097 131.571 197.647 137.364 197.647 143.495C197.647 149.625 199.096 155.417 201.671 160.546C190.311 164.322 181.329 173.304 177.553 184.664C172.423 182.09 166.631 180.64 160.501 180.64C154.37 180.64 148.578 182.09 143.448 184.664C139.673 173.305 130.69 164.322 119.33 160.546C121.905 155.417 123.354 149.625 123.354 143.495C123.354 137.364 121.904 131.571 119.329 126.441C130.689 122.666 139.672 113.683 143.448 102.323C148.578 104.898 154.37 106.347 160.501 106.347ZM124.369 56.2651C129.399 41.1289 143.675 30.2129 160.501 30.2129C177.326 30.2129 191.602 41.1287 196.633 56.2648C201.763 53.6903 207.555 52.2411 213.685 52.2411C234.709 52.2411 251.753 69.2843 251.753 90.3082C251.753 96.4394 250.303 102.232 247.728 107.362C262.865 112.392 273.782 126.669 273.782 143.495C273.782 160.32 262.866 174.596 247.729 179.627C250.304 184.757 251.753 190.548 251.753 196.679C251.753 217.703 234.709 234.746 213.685 234.746C207.555 234.746 201.763 233.297 196.633 230.722C191.602 245.859 177.326 256.775 160.501 256.775C143.675 256.775 129.399 245.859 124.368 230.722C119.239 233.297 113.446 234.746 107.316 234.746C86.2917 234.746 69.2484 217.703 69.2484 196.679C69.2484 190.548 70.6975 184.757 73.2717 179.627C58.1353 174.597 47.2192 160.321 47.2192 143.495C47.2192 126.669 58.1359 112.392 73.273 107.362C70.698 102.232 69.2485 96.4395 69.2485 90.3084C69.2485 69.2845 86.2918 52.2412 107.316 52.2412C113.446 52.2412 119.239 53.6905 124.369 56.2651Z" fill="url(#paint0_linear_102_1878)"/>
<path d="M158.751 54.2757C172.294 27.2726 198.493 19.2109 211.851 27.4319C223.521 34.6155 227.872 55.7521 220.023 66.5293C211.122 78.7475 184.137 80.9532 160.5 61.2788" stroke="#DD2F29" stroke-width="12.7209" stroke-miterlimit="10"/>
<path d="M158.752 54.2757C145.206 27.2726 119.006 19.2109 105.648 27.4319C93.9788 34.6155 89.6275 55.7521 97.4768 66.5293C106.378 78.7475 133.363 80.9532 156.999 61.2788" stroke="#DD2F29" stroke-width="12.7209" stroke-miterlimit="10"/>
<path d="M158.751 53.6904C158.33 58.2116 156.832 71.0529 146.498 81.6991C126.129 102.68 103.885 105.367 99.7563 107.038" stroke="#DD2F29" stroke-width="12.7209" stroke-miterlimit="10"/>
<path d="M158.751 53.6904C159.173 58.2116 160.67 71.0529 171.005 81.6991C191.373 102.68 213.618 105.367 217.746 107.038" stroke="#DD2F29" stroke-width="12.7209" stroke-miterlimit="10"/>
<path d="M235.714 105.424C239.267 105.424 242.147 102.544 242.147 98.9907C242.147 95.4378 239.267 92.5576 235.714 92.5576C232.161 92.5576 229.281 95.4378 229.281 98.9907C229.281 102.544 232.161 105.424 235.714 105.424Z" fill="#387F3F"/>
<path d="M226.845 209.745C230.398 209.745 233.278 206.865 233.278 203.312C233.278 199.759 230.398 196.879 226.845 196.879C223.292 196.879 220.412 199.759 220.412 203.312C220.412 206.865 223.292 209.745 226.845 209.745Z" fill="#387F3F"/>
<path d="M155.438 209.745C158.991 209.745 161.871 206.865 161.871 203.312C161.871 199.759 158.991 196.879 155.438 196.879C151.885 196.879 149.005 199.759 149.005 203.312C149.005 206.865 151.885 209.745 155.438 209.745Z" fill="#5BB6E2"/>
<path d="M96.4535 212.213C100.006 212.213 102.887 209.333 102.887 205.78C102.887 202.227 100.006 199.347 96.4535 199.347C92.9007 199.347 90.0205 202.227 90.0205 205.78C90.0205 209.333 92.9007 212.213 96.4535 212.213Z" fill="#EBA95B"/>
<path d="M93.5077 146.504C97.0606 146.504 99.9408 143.624 99.9408 140.071C99.9408 136.518 97.0606 133.638 93.5077 133.638C89.9549 133.638 87.0747 136.518 87.0747 140.071C87.0747 143.624 89.9549 146.504 93.5077 146.504Z" fill="#DD2F29"/>
<path d="M85.287 98.9911C88.8399 98.9911 91.7201 96.1109 91.7201 92.558C91.7201 89.0052 88.8399 86.125 85.287 86.125C81.7342 86.125 78.854 89.0052 78.854 92.558C78.854 96.1109 81.7342 98.9911 85.287 98.9911Z" fill="#5BB6E2"/>
<path d="M230.425 149.928C233.978 149.928 236.858 147.047 236.858 143.495C236.858 139.942 233.978 137.062 230.425 137.062C226.872 137.062 223.992 139.942 223.992 143.495C223.992 147.047 226.872 149.928 230.425 149.928Z" fill="#DD2F29"/>
</g>
<path d="M37.2097 233.435L39.7097 248.612L54.8872 251.112L39.7097 253.612L37.2097 268.79L34.7097 253.612L19.5322 251.112L34.7097 248.612L37.2097 233.435Z" fill="#EBA95B"/>
<path d="M279.323 9L281.017 19.2876L291.305 20.9822L281.017 22.6767L279.323 32.9644L277.628 22.6767L267.34 20.9822L277.628 19.2876L279.323 9Z" fill="#EBA95B"/>
<path fill-rule="evenodd" clip-rule="evenodd" d="M50.2059 0.568902C50.6118 0.486355 51.0078 0.748488 51.0904 1.15439L52.1062 6.14947L54.6554 1.65581C54.8597 1.29553 55.3175 1.16915 55.6778 1.37353C56.0381 1.57791 56.1644 2.03566 55.9601 2.39594L53.3435 7.0084L57.9228 5.63941C58.3196 5.52077 58.7375 5.74631 58.8562 6.14317C58.9748 6.54003 58.7493 6.95792 58.3524 7.07656L52.274 8.89373L48.9176 14.8102L55.412 14.8181L60.3941 10.284C60.7015 10.0042 61.1719 10.0285 61.4447 10.3382C61.7176 10.6479 61.6896 11.1258 61.3821 11.4056L57.6294 14.8208L62.759 14.8271C63.17 14.8276 63.4999 15.1664 63.4958 15.5837C63.4917 16.0011 63.1551 16.339 62.7441 16.3385L57.549 16.3322L61.0081 19.7025C61.3034 19.9902 61.311 20.4686 61.025 20.7709C60.7391 21.0733 60.2679 21.0852 59.9726 20.7975L55.387 16.3295L48.7051 16.3214L51.9488 22.0709L58.2873 24.2071C58.6785 24.339 58.8931 24.7668 58.7667 25.1628C58.6403 25.5588 58.2208 25.773 57.8297 25.6412L53.0552 24.0321L55.6147 28.5689C55.8197 28.9324 55.6972 29.3933 55.341 29.5984C54.9848 29.8034 54.5297 29.6749 54.3247 29.3114L51.7325 24.7167L50.602 29.4591C50.5055 29.8639 50.1034 30.1098 49.7038 30.0082C49.3043 29.9067 49.0586 29.4962 49.1551 29.0914L50.6537 22.8045L47.5268 17.2619L44.2188 23.0932L45.4318 29.3192C45.511 29.7257 45.2456 30.1195 44.839 30.1987C44.4325 30.278 44.0387 30.0126 43.9594 29.606L43.0813 25.0985L40.3956 29.8326C40.1913 30.1929 39.7335 30.3193 39.3732 30.1149C39.0129 29.9105 38.8866 29.4528 39.0909 29.0925L41.9449 24.0616L37.0757 25.1407C36.6713 25.2303 36.2708 24.9751 36.1812 24.5707C36.0915 24.1663 36.3467 23.7658 36.7511 23.6762L42.9418 22.3043L46.3375 16.3185L39.3203 16.3099L34.6526 20.4869C34.3429 20.764 33.8727 20.7357 33.6025 20.4237C33.3323 20.1116 33.3643 19.634 33.674 19.3568L37.082 16.3072L31.6797 16.3006C31.2687 16.3001 30.9388 15.9613 30.9429 15.5439C30.947 15.1266 31.2836 14.7887 31.6946 14.7892L37.3625 14.7961L34.0069 11.0261C33.7325 10.7178 33.7581 10.2398 34.0642 9.95845C34.3702 9.67711 34.8408 9.69895 35.1152 10.0072L39.3798 14.7985L46.1418 14.8068L42.637 8.59447L36.7587 6.55747C36.3686 6.42231 36.1576 5.99264 36.2872 5.59777C36.4169 5.2029 36.8382 4.99236 37.2283 5.12752L41.5202 6.61476L38.8246 1.83676C38.6196 1.47323 38.7421 1.01232 39.0983 0.807276C39.4545 0.602233 39.9095 0.730705 40.1146 1.09423L42.9427 6.10714L44.4641 1.25635C44.5885 0.859695 45.0069 0.643378 45.3987 0.773197C45.7904 0.903014 46.0072 1.32981 45.8828 1.72647L43.9493 7.89133L47.5238 14.2273L50.9794 8.13572L49.6204 1.45332C49.5379 1.04742 49.8 0.65145 50.2059 0.568902Z" fill="white"/>
<path fill-rule="evenodd" clip-rule="evenodd" d="M292.742 233.45C293.148 233.367 293.544 233.629 293.627 234.035L293.944 235.594L294.746 234.18C294.95 233.82 295.408 233.693 295.768 233.898C296.128 234.102 296.255 234.56 296.05 234.92L295.181 236.453L296.615 236.024C297.012 235.905 297.43 236.131 297.549 236.528C297.667 236.925 297.442 237.343 297.045 237.461L294.111 238.338L292.801 240.648L295.313 240.651L297.728 238.453C298.036 238.173 298.506 238.197 298.779 238.507C299.052 238.816 299.024 239.294 298.716 239.574L297.53 240.653L299.173 240.655C299.584 240.656 299.914 240.995 299.91 241.412C299.905 241.829 299.569 242.167 299.158 242.167L297.45 242.165L298.539 243.226C298.834 243.514 298.842 243.992 298.556 244.294C298.27 244.597 297.798 244.608 297.503 244.321L295.288 242.162L292.689 242.159L293.946 244.387L297.019 245.422C297.41 245.554 297.625 245.982 297.498 246.378C297.372 246.774 296.953 246.988 296.561 246.856L295.052 246.348L295.872 247.801C296.077 248.164 295.955 248.625 295.598 248.83C295.242 249.035 294.787 248.907 294.582 248.543L293.73 247.032L293.374 248.525C293.277 248.93 292.875 249.176 292.476 249.074C292.076 248.973 291.83 248.562 291.927 248.157L292.651 245.12L291.461 243.011L290.176 245.276L290.763 248.293C290.843 248.699 290.577 249.093 290.171 249.172C289.764 249.251 289.37 248.986 289.291 248.579L289.038 247.281L288.173 248.806C287.969 249.166 287.511 249.293 287.151 249.088C286.79 248.884 286.664 248.426 286.868 248.066L287.902 246.244L286.251 246.61C285.846 246.7 285.446 246.445 285.356 246.04C285.267 245.636 285.522 245.235 285.926 245.146L288.899 244.487L290.221 242.156L287.443 242.153L285.186 244.172C284.876 244.449 284.406 244.421 284.136 244.109C283.866 243.797 283.898 243.319 284.207 243.042L285.205 242.15L283.436 242.148C283.025 242.147 282.695 241.808 282.699 241.391C282.703 240.974 283.04 240.636 283.451 240.636L285.485 240.639L284.344 239.357C284.069 239.048 284.095 238.57 284.401 238.289C284.707 238.008 285.178 238.029 285.452 238.338L287.502 240.641L290.126 240.644L288.737 238.182L285.894 237.197C285.504 237.062 285.293 236.632 285.423 236.237C285.553 235.842 285.974 235.632 286.364 235.767L287.62 236.202L286.737 234.638C286.532 234.274 286.655 233.814 287.011 233.608C287.367 233.403 287.822 233.532 288.027 233.895L289.042 235.695L289.56 234.045C289.684 233.648 290.103 233.432 290.494 233.562C290.886 233.691 291.103 234.118 290.978 234.515L290.049 237.479L291.458 239.976L292.817 237.58L292.157 234.334C292.074 233.928 292.336 233.532 292.742 233.45Z" fill="white"/>
<path fill-rule="evenodd" clip-rule="evenodd" d="M10.0429 50.1412C10.4488 50.0586 10.8448 50.3208 10.9273 50.7267L11.2443 52.2854L12.0464 50.8715C12.2508 50.5112 12.7086 50.3848 13.0688 50.5892C13.4291 50.7936 13.5555 51.2513 13.3511 51.6116L12.4816 53.1443L13.9162 52.7155C14.313 52.5968 14.7309 52.8224 14.8496 53.2192C14.9682 53.6161 14.7427 54.034 14.3458 54.1526L11.4121 55.0297L10.102 57.3391L12.6135 57.3422L15.029 55.1439C15.3364 54.8641 15.8068 54.8884 16.0797 55.1981C16.3525 55.5078 16.3245 55.9856 16.017 56.2654L14.8309 57.3449L16.4736 57.3469C16.8846 57.3474 17.2145 57.6861 17.2103 58.1035C17.2062 58.5209 16.8697 58.8588 16.4587 58.8583L14.7505 58.8562L15.8395 59.9172C16.1348 60.2049 16.1423 60.6833 15.8564 60.9856C15.5704 61.288 15.0992 61.2999 14.804 61.0122L12.5885 58.8536L9.99003 58.8504L11.2467 61.0779L14.3198 62.1136C14.711 62.2455 14.9256 62.6733 14.7992 63.0693C14.6728 63.4653 14.2533 63.6795 13.8622 63.5477L12.3531 63.0391L13.1727 64.4919C13.3778 64.8554 13.2553 65.3164 12.8991 65.5214C12.5428 65.7264 12.0878 65.598 11.8827 65.2344L11.0304 63.7237L10.6746 65.2167C10.5781 65.6215 10.1759 65.8673 9.77638 65.7658C9.37683 65.6642 9.13115 65.2537 9.22765 64.8489L9.95168 61.8116L8.76156 59.702L7.4764 61.9675L8.06409 64.984C8.1433 65.3905 7.87792 65.7843 7.47135 65.8636C7.06478 65.9428 6.67098 65.6774 6.59177 65.2708L6.33886 63.9727L5.47388 65.4975C5.2695 65.8577 4.81176 65.9841 4.45148 65.7797C4.0912 65.5754 3.96482 65.1176 4.1692 64.7573L5.20249 62.9359L3.55158 63.3017C3.14718 63.3913 2.7467 63.1361 2.65708 62.7317C2.56746 62.3273 2.82265 61.9269 3.22705 61.8372L6.19938 61.1785L7.52182 58.8474L4.7437 58.844L2.48676 60.8636C2.17704 61.1408 1.7069 61.1125 1.43666 60.8005C1.16642 60.4884 1.19842 60.0108 1.50814 59.7336L2.50532 58.8413L0.736802 58.8391C0.325783 58.8386 -0.00407835 58.4998 3.81126e-05 58.0825C0.00415375 57.6651 0.340688 57.3272 0.751709 57.3277L2.78583 57.3302L1.6446 56.048C1.37021 55.7397 1.39586 55.2617 1.70191 54.9804C2.00795 54.6991 2.47849 54.7209 2.75288 55.0292L4.80314 57.3326L7.42668 57.3358L6.03739 54.8732L3.19509 53.8883C2.80504 53.7532 2.59397 53.3235 2.72366 52.9286C2.85334 52.5337 3.27466 52.3232 3.66471 52.4584L4.92052 52.8935L4.0381 51.3294C3.83301 50.9659 3.95554 50.5049 4.31176 50.2999C4.66798 50.0949 5.12301 50.2233 5.32809 50.5869L6.34305 52.3859L6.86046 50.7362C6.98486 50.3395 7.4033 50.1232 7.79506 50.253C8.18682 50.3828 8.40356 50.8096 8.27915 51.2063L7.34961 54.1701L8.75848 56.6674L10.1176 54.2716L9.45742 51.0256C9.37488 50.6197 9.63701 50.2237 10.0429 50.1412Z" fill="white"/>
<path fill-rule="evenodd" clip-rule="evenodd" d="M327.832 127.757C328.238 127.675 328.634 127.937 328.717 128.343L329.034 129.902L329.836 128.488C330.04 128.127 330.498 128.001 330.858 128.205C331.219 128.41 331.345 128.868 331.141 129.228L330.271 130.761L331.706 130.332C332.103 130.213 332.52 130.439 332.639 130.835C332.758 131.232 332.532 131.65 332.135 131.769L329.202 132.646L327.892 134.955L330.403 134.958L332.819 132.76C333.126 132.48 333.596 132.505 333.869 132.814C334.142 133.124 334.114 133.602 333.807 133.882L332.62 134.961L334.263 134.963C334.674 134.964 335.004 135.302 335 135.72C334.996 136.137 334.659 136.475 334.248 136.475L332.54 136.472L333.629 137.533C333.924 137.821 333.932 138.299 333.646 138.602C333.36 138.904 332.889 138.916 332.594 138.628L330.378 136.47L327.78 136.467L329.036 138.694L332.109 139.73C332.501 139.862 332.715 140.29 332.589 140.686C332.462 141.082 332.043 141.296 331.652 141.164L330.143 140.655L330.962 142.108C331.167 142.472 331.045 142.933 330.689 143.138C330.332 143.343 329.877 143.214 329.672 142.851L328.82 141.34L328.464 142.833C328.368 143.238 327.965 143.484 327.566 143.382C327.166 143.28 326.921 142.87 327.017 142.465L327.741 139.428L326.551 137.318L325.266 139.584L325.854 142.6C325.933 143.007 325.667 143.401 325.261 143.48C324.854 143.559 324.461 143.294 324.381 142.887L324.128 141.589L323.263 143.114C323.059 143.474 322.601 143.6 322.241 143.396C321.881 143.192 321.754 142.734 321.959 142.374L322.992 140.552L321.341 140.918C320.937 141.008 320.536 140.752 320.447 140.348C320.357 139.944 320.612 139.543 321.017 139.453L323.989 138.795L325.311 136.464L322.533 136.46L320.276 138.48C319.967 138.757 319.496 138.729 319.226 138.417C318.956 138.105 318.988 137.627 319.298 137.35L320.295 136.457L318.526 136.455C318.115 136.455 317.785 136.116 317.79 135.699C317.794 135.281 318.13 134.943 318.541 134.944L320.575 134.946L319.434 133.664C319.16 133.356 319.185 132.878 319.491 132.597C319.798 132.315 320.268 132.337 320.542 132.645L322.593 134.949L325.216 134.952L323.827 132.489L320.985 131.505C320.595 131.369 320.384 130.94 320.513 130.545C320.643 130.15 321.064 129.939 321.454 130.075L322.71 130.51L321.828 128.946C321.623 128.582 321.745 128.121 322.101 127.916C322.458 127.711 322.913 127.84 323.118 128.203L324.133 130.002L324.65 128.352C324.774 127.956 325.193 127.739 325.585 127.869C325.976 127.999 326.193 128.426 326.069 128.823L325.139 131.786L326.548 134.284L327.907 131.888L327.247 128.642C327.164 128.236 327.427 127.84 327.832 127.757Z" fill="white"/>
<defs>
<linearGradient id="paint0_linear_102_1878" x1="160.5" y1="30.2129" x2="160.5" y2="256.775" gradientUnits="userSpaceOnUse">
<stop stop-color="#F2EBE7"/>
<stop offset="1" stop-color="#F2EBE7"/>
</linearGradient>
<clipPath id="clip0_102_1878">
<rect width="226.562" height="238.777" fill="white" transform="translate(47.2192 18)"/>
</clipPath>
</defs>
</svg>
