<svg width="375" height="667" viewBox="0 0 375 667" fill="none" xmlns="http://www.w3.org/2000/svg">
<rect width="375" height="667" fill="#DB1820"/>
<path d="M308.788 -1.66797L308.788 672.693" stroke="url(#paint0_linear_102_2091)" stroke-width="8.07415" stroke-miterlimit="10"/>
<path d="M0 82.7969L267.387 82.7969" stroke="#EBA95B" stroke-width="8.07415" stroke-miterlimit="10"/>
<path d="M352.915 82.7969L620.302 82.7969" stroke="#EBA95B" stroke-width="8.07415" stroke-miterlimit="10"/>
<g clip-path="url(#clip0_102_2091)">
<path d="M228.655 283.746L175.356 376.062C175.153 376.415 174.949 376.768 174.736 377.115C154.319 411.17 110.242 422.644 75.6658 402.681L16.1052 368.294C-14.9671 350.354 -27.8889 313.062 -16.1785 280.501C-14.7275 276.464 -12.8961 272.497 -10.678 268.656L42.6211 176.339L228.655 283.746Z" fill="#EFE5DF"/>
<path d="M198.08 38.9575L17.2009 196.369L244.281 274.368L198.08 38.9575Z" fill="url(#paint1_linear_102_2091)"/>
<path d="M175.062 84.7743C192.304 94.7295 214.34 88.8439 224.279 71.6285C234.219 54.413 228.298 32.3869 211.055 22.4317C193.812 12.4765 171.777 18.3621 161.837 35.5775C151.898 52.793 157.819 74.8191 175.062 84.7743Z" fill="#F7F7F7"/>
<path d="M85.1405 289.677C89.509 292.199 95.0917 290.708 97.6098 286.346C100.128 281.985 98.6279 276.404 94.2594 273.882C89.891 271.36 84.3083 272.851 81.7901 277.213C79.272 281.574 80.772 287.154 85.1405 289.677Z" fill="#2D2D2D"/>
<path d="M125.247 312.833C129.616 315.355 135.199 313.864 137.717 309.502C140.235 305.141 138.735 299.561 134.366 297.038C129.998 294.516 124.415 296.007 121.897 300.369C119.379 304.73 120.879 310.311 125.247 312.833Z" fill="#2D2D2D"/>
<path d="M174.736 377.115C154.319 411.17 110.243 422.644 75.6661 402.681L16.1054 368.294C-14.9669 350.354 -27.8887 313.062 -16.1783 280.501C17.482 275.176 60.6963 284.127 101.537 307.706C134.311 326.628 159.68 351.569 174.736 377.115Z" fill="#F7F7F7"/>
<path d="M94.518 328.45C102.198 332.884 112.012 330.262 116.438 322.595C120.865 314.928 118.228 305.118 110.548 300.684C102.869 296.251 93.055 298.872 88.6283 306.539C84.2016 314.206 86.8385 324.016 94.518 328.45Z" fill="#E0CEC6"/>
<path d="M229.584 232.979L44.9773 169.568C28.4855 163.903 10.5388 172.663 4.89221 189.134L-2.28752 210.077C-7.93408 226.548 0.857738 244.492 17.3495 250.157L201.956 313.568C218.448 319.233 236.395 310.473 242.041 294.002L249.221 273.059C254.868 256.588 246.076 238.643 229.584 232.979Z" fill="#F7F7F7"/>
<path d="M108.938 341.081C105.332 347.326 97.3466 349.459 91.0912 345.847C84.8359 342.236 82.6902 334.254 86.296 328.008C90.7376 320.315 107.877 316.773 107.877 316.773C107.877 316.773 113.674 332.877 108.938 341.081Z" fill="#5BB6E2"/>
<path d="M264.942 182.786L267.442 197.964L282.62 200.464L267.442 202.964L264.942 218.141L262.442 202.964L247.265 200.464L262.442 197.964L264.942 182.786Z" fill="#008236"/>
</g>
<path d="M30.6725 300.263L80.9306 367.497C83.7905 371.323 83.0057 376.755 79.1797 379.615L36.4661 411.544C24.0814 420.801 6.50341 418.271 -2.76171 405.876L-29.8272 369.669C-39.0849 357.284 -36.554 339.706 -24.1594 330.441L18.5542 298.512C22.3802 295.652 27.8125 296.437 30.6725 300.263Z" fill="#EFE5DF"/>
<path d="M51.4416 298.726L47.8592 293.934C43.2687 287.793 34.5691 286.536 28.4281 291.126L1.54653 311.221C-4.59447 315.811 -5.85143 324.511 -1.26095 330.652L2.32146 335.444C6.91194 341.585 15.6115 342.842 21.7526 338.252L48.6341 318.157C54.7751 313.567 56.0321 304.867 51.4416 298.726Z" fill="#EFE5DF"/>
<path d="M-7.12533 296.713L-13.0473 295.857C-20.6356 294.761 -27.6759 300.024 -28.7723 307.612L-33.5716 340.829C-34.668 348.417 -29.4053 355.458 -21.817 356.554L-15.895 357.41C-8.30672 358.506 -1.26637 353.243 -0.169985 345.655L4.62933 312.438C5.72572 304.85 0.462978 297.809 -7.12533 296.713Z" fill="#EFE5DF"/>
<path d="M68.0528 320.972L71.6426 325.775C76.2305 331.912 74.9727 340.618 68.8351 345.206L38.0977 368.183C34.0824 371.184 28.3989 370.354 25.4048 366.349L16.0652 353.854C13.0637 349.839 13.8938 344.156 17.8991 341.161L48.6366 318.185C54.7741 313.597 63.4798 314.855 68.0677 320.992L68.0528 320.972Z" fill="#EFE5DF"/>
<path d="M88.2578 348.01L91.8477 352.813C96.4356 358.95 95.1777 367.656 89.0402 372.244L58.3028 395.221C54.2875 398.222 48.6039 397.392 45.6099 393.387L36.2703 380.892C33.2688 376.877 34.0989 371.194 38.1042 368.2L68.8417 345.223C74.9792 340.635 83.6849 341.893 88.2727 348.03L88.2578 348.01Z" fill="#EFE5DF"/>
<path d="M308.787 79.8796C317.381 62.7416 334.006 57.6294 342.486 62.8413C349.891 67.3981 352.654 80.8123 347.67 87.6547C342.024 95.4084 324.893 96.8111 309.898 84.3225" stroke="#EBA95B" stroke-width="8.07415" stroke-miterlimit="10"/>
<path d="M308.787 79.8796C300.193 62.7416 283.568 57.6294 275.088 62.8413C267.683 67.3981 264.921 80.8123 269.905 87.6547C275.551 95.4084 292.682 96.8111 307.677 84.3225" stroke="#EBA95B" stroke-width="8.07415" stroke-miterlimit="10"/>
<path d="M308.787 79.5088C308.517 82.3782 307.57 90.5235 301.012 97.2876C288.089 110.602 273.97 112.304 271.35 113.372" stroke="#EBA95B" stroke-width="8.07415" stroke-miterlimit="10"/>
<path d="M308.787 79.5088C309.058 82.3782 310.005 90.5235 316.562 97.2876C329.485 110.602 343.604 112.304 346.224 113.372" stroke="#EBA95B" stroke-width="8.07415" stroke-miterlimit="10"/>
<circle cx="47.1362" cy="68.8817" r="7.42114" transform="rotate(-105 47.1362 68.8817)" fill="white"/>
<circle cx="83.7833" cy="103.111" r="4.03833" transform="rotate(-105 83.7833 103.111)" fill="white"/>
<path d="M27.6179 108.057L30.1179 123.234L45.2954 125.734L30.1179 128.234L27.6179 143.412L25.1179 128.234L9.94043 125.734L25.1179 123.234L27.6179 108.057Z" fill="#FF82FD"/>
<path d="M345.183 296.52L347.683 311.697L362.861 314.197L347.683 316.697L345.183 331.875L342.683 316.697L327.506 314.197L342.683 311.697L345.183 296.52Z" fill="#FF82FD"/>
<path d="M251.677 12.7832L254.177 27.9607L269.355 30.4607L254.177 32.9607L251.677 48.1382L249.178 32.9607L234 30.4607L249.178 27.9607L251.677 12.7832Z" fill="#5BB6E2"/>
<path fill-rule="evenodd" clip-rule="evenodd" d="M91.7157 21.356C92.1216 21.2735 92.5176 21.5356 92.6001 21.9415L93.6159 26.9366L96.1651 22.4429C96.3695 22.0826 96.8273 21.9563 97.1875 22.1606C97.5478 22.365 97.6742 22.8228 97.4698 23.1831L94.8532 27.7955L99.4326 26.4265C99.8294 26.3079 100.247 26.5334 100.366 26.9303C100.485 27.3271 100.259 27.745 99.8622 27.8637L93.7837 29.6808L90.4274 35.5973L96.9218 35.6052L101.904 31.0711C102.211 30.7914 102.682 30.8156 102.955 31.1253C103.227 31.435 103.199 31.9129 102.892 32.1927L99.1392 35.6079L104.269 35.6142C104.68 35.6147 105.01 35.9535 105.006 36.3708C105.001 36.7882 104.665 37.1261 104.254 37.1256L99.0588 37.1193L102.518 40.4896C102.813 40.7773 102.821 41.2557 102.535 41.558C102.249 41.8604 101.778 41.8723 101.482 41.5846L96.8968 37.1166L90.2149 37.1085L93.4585 42.858L99.7971 44.9942C100.188 45.1261 100.403 45.5539 100.276 45.9499C100.15 46.3459 99.7306 46.5601 99.3394 46.4283L94.5649 44.8192L97.1244 49.356C97.3295 49.7195 97.207 50.1804 96.8508 50.3855C96.4945 50.5905 96.0395 50.462 95.8344 50.0985L93.2423 45.5038L92.1118 50.2462C92.0153 50.651 91.6132 50.8969 91.2136 50.7953C90.8141 50.6938 90.5684 50.2833 90.6649 49.8785L92.1635 43.5916L89.0366 38.049L85.7286 43.8803L86.9415 50.1063C87.0207 50.5128 86.7554 50.9066 86.3488 50.9858C85.9422 51.0651 85.5484 50.7997 85.4692 50.3931L84.591 45.8856L81.9054 50.6198C81.701 50.98 81.2433 51.1064 80.883 50.902C80.5227 50.6977 80.3963 50.2399 80.6007 49.8796L83.4547 44.8487L78.5854 45.9278C78.181 46.0174 77.7805 45.7622 77.6909 45.3578C77.6013 44.9534 77.8565 44.5529 78.2609 44.4633L84.4515 43.0914L87.8472 37.1056L80.8301 37.097L76.1624 41.274C75.8526 41.5511 75.3825 41.5229 75.1123 41.2108C74.842 40.8988 74.874 40.4211 75.1837 40.1439L78.5917 37.0943L73.1894 37.0877C72.7784 37.0872 72.4486 36.7484 72.4527 36.3311C72.4568 35.9137 72.7933 35.5758 73.2043 35.5763L78.8722 35.5832L75.5166 31.8132C75.2422 31.5049 75.2679 31.0269 75.5739 30.7456C75.88 30.4642 76.3505 30.4861 76.6249 30.7943L80.8895 35.5857L87.6515 35.5939L84.1468 29.3816L78.2684 27.3446C77.8784 27.2094 77.6673 26.7797 77.797 26.3849C77.9267 25.99 78.348 25.7795 78.7381 25.9146L83.0299 27.4019L80.3344 22.6239C80.1293 22.2603 80.2518 21.7994 80.6081 21.5944C80.9643 21.3893 81.4193 21.5178 81.6244 21.8813L84.4525 26.8943L85.9738 22.0435C86.0982 21.6468 86.5167 21.4305 86.9084 21.5603C87.3002 21.6901 87.5169 22.1169 87.3925 22.5136L85.459 28.6784L89.0335 35.0144L92.4892 28.9228L91.1302 22.2404C91.0477 21.8345 91.3098 21.4386 91.7157 21.356Z" fill="#FEA23A"/>
<path fill-rule="evenodd" clip-rule="evenodd" d="M325.987 360.841C326.393 360.759 326.789 361.021 326.871 361.427L327.887 366.422L330.436 361.928C330.641 361.568 331.098 361.442 331.459 361.646C331.819 361.85 331.945 362.308 331.741 362.668L329.124 367.281L333.704 365.912C334.1 365.793 334.518 366.019 334.637 366.416C334.756 366.812 334.53 367.23 334.133 367.349L328.055 369.166L324.698 375.083L331.193 375.091L336.175 370.556C336.482 370.277 336.953 370.301 337.226 370.611C337.498 370.92 337.47 371.398 337.163 371.678L333.41 375.093L338.54 375.1C338.951 375.1 339.281 375.439 339.277 375.856C339.272 376.274 338.936 376.611 338.525 376.611L333.33 376.605L336.789 379.975C337.084 380.263 337.092 380.741 336.806 381.043C336.52 381.346 336.049 381.358 335.753 381.07L331.168 376.602L324.486 376.594L327.73 382.343L334.068 384.48C334.459 384.611 334.674 385.039 334.547 385.435C334.421 385.831 334.002 386.045 333.61 385.914L328.836 384.305L331.395 388.841C331.6 389.205 331.478 389.666 331.122 389.871C330.766 390.076 330.311 389.947 330.105 389.584L327.513 384.989L326.383 389.732C326.286 390.136 325.884 390.382 325.485 390.281C325.085 390.179 324.839 389.769 324.936 389.364L326.435 383.077L323.308 377.534L320 383.366L321.213 389.592C321.292 389.998 321.026 390.392 320.62 390.471C320.213 390.55 319.819 390.285 319.74 389.878L318.862 385.371L316.176 390.105C315.972 390.465 315.514 390.592 315.154 390.387C314.794 390.183 314.667 389.725 314.872 389.365L317.726 384.334L312.856 385.413C312.452 385.503 312.052 385.248 311.962 384.843C311.872 384.439 312.127 384.038 312.532 383.949L318.723 382.577L322.118 376.591L315.101 376.582L310.433 380.759C310.124 381.036 309.653 381.008 309.383 380.696C309.113 380.384 309.145 379.906 309.455 379.629L312.863 376.58L307.46 376.573C307.049 376.573 306.72 376.234 306.724 375.816C306.728 375.399 307.064 375.061 307.475 375.062L313.143 375.069L309.788 371.299C309.513 370.99 309.539 370.512 309.845 370.231C310.151 369.95 310.622 369.971 310.896 370.28L315.161 375.071L321.923 375.079L318.418 368.867L312.539 366.83C312.149 366.695 311.938 366.265 312.068 365.87C312.198 365.475 312.619 365.265 313.009 365.4L317.301 366.887L314.605 362.109C314.4 361.746 314.523 361.285 314.879 361.08C315.235 360.875 315.69 361.003 315.895 361.367L318.723 366.38L320.245 361.529C320.369 361.132 320.788 360.916 321.179 361.046C321.571 361.175 321.788 361.602 321.664 361.999L319.73 368.164L323.305 374.5L326.76 368.408L325.401 361.726C325.319 361.32 325.581 360.924 325.987 360.841Z" fill="white"/>
<path fill-rule="evenodd" clip-rule="evenodd" d="M23.3695 541.589C23.7754 541.507 24.1714 541.769 24.2539 542.175L24.6433 544.089L25.6262 542.357C25.8306 541.996 26.2883 541.87 26.6486 542.074C27.0089 542.279 27.1353 542.736 26.9309 543.097L25.8806 544.948L27.6406 544.422C28.0375 544.303 28.4554 544.529 28.574 544.926C28.6927 545.323 28.4671 545.741 28.0703 545.859L24.811 546.834L23.2891 549.516L26.2128 549.52L28.8939 547.08C29.2013 546.8 29.6717 546.824 29.9446 547.134C30.2174 547.444 30.1894 547.922 29.882 548.201L28.4302 549.523L30.4338 549.525C30.8448 549.526 31.1747 549.864 31.1705 550.282C31.1664 550.699 30.8299 551.037 30.4189 551.037L28.3498 551.034L29.6841 552.334C29.9793 552.622 29.9869 553.1 29.701 553.402C29.415 553.705 28.9438 553.717 28.6486 553.429L26.1878 551.031L23.1664 551.028L24.6288 553.62L28.04 554.769C28.4311 554.901 28.6457 555.329 28.5194 555.725C28.393 556.121 27.9734 556.335 27.5823 556.203L25.7352 555.581L26.735 557.353C26.94 557.717 26.8175 558.177 26.4613 558.383C26.1051 558.588 25.65 558.459 25.445 558.096L24.4126 556.266L23.9765 558.095C23.88 558.5 23.4779 558.746 23.0783 558.644C22.6788 558.542 22.4331 558.132 22.5296 557.727L23.3338 554.353L21.9433 551.889L20.4489 554.523L21.1013 557.872C21.1805 558.278 20.9152 558.672 20.5086 558.751C20.102 558.831 19.7082 558.565 19.629 558.159L19.3114 556.528L18.258 558.385C18.0536 558.746 17.5958 558.872 17.2355 558.668C16.8753 558.463 16.7489 558.005 16.9533 557.645L18.175 555.491L16.191 555.931C15.7866 556.021 15.3861 555.766 15.2965 555.361C15.2069 554.957 15.462 554.556 15.8664 554.467L19.1719 553.734L20.709 551.025L17.4919 551.021L14.9854 553.264C14.6757 553.541 14.2056 553.513 13.9353 553.2C13.6651 552.888 13.6971 552.411 14.0068 552.134L15.2535 551.018L13.1089 551.015C12.6979 551.015 12.368 550.676 12.3721 550.259C12.3762 549.841 12.7128 549.503 13.1238 549.504L15.534 549.507L14.1636 547.967C13.8892 547.659 13.9149 547.181 14.2209 546.9C14.5269 546.618 14.9975 546.64 15.2719 546.948L17.5513 549.509L20.6031 549.513L18.9949 546.662L15.8383 545.569C15.4483 545.433 15.2372 545.004 15.3669 544.609C15.4966 544.214 15.9179 544.003 16.3079 544.139L17.878 544.683L16.8079 542.786C16.6028 542.422 16.7253 541.961 17.0816 541.756C17.4378 541.551 17.8928 541.68 18.0979 542.043L19.3005 544.175L19.9219 542.194C20.0463 541.797 20.4647 541.581 20.8565 541.711C21.2482 541.841 21.465 542.267 21.3406 542.664L20.3071 545.959L21.9403 548.854L23.5165 546.076L22.784 542.474C22.7015 542.068 22.9636 541.672 23.3695 541.589Z" fill="white"/>
<path fill-rule="evenodd" clip-rule="evenodd" d="M340.486 157.107C340.892 157.024 341.288 157.287 341.37 157.692L341.759 159.607L342.742 157.874C342.947 157.514 343.405 157.388 343.765 157.592C344.125 157.796 344.251 158.254 344.047 158.614L342.997 160.466L344.757 159.94C345.154 159.821 345.572 160.047 345.69 160.443C345.809 160.84 345.583 161.258 345.186 161.377L341.927 162.351L340.405 165.034L343.329 165.038L346.01 162.597C346.318 162.318 346.788 162.342 347.061 162.652C347.334 162.961 347.306 163.439 346.998 163.719L345.546 165.04L347.55 165.043C347.961 165.043 348.291 165.382 348.287 165.799C348.283 166.217 347.946 166.555 347.535 166.554L345.466 166.552L346.8 167.852C347.096 168.139 347.103 168.618 346.817 168.92C346.531 169.222 346.06 169.234 345.765 168.947L343.304 166.549L340.283 166.545L341.745 169.137L345.156 170.287C345.547 170.419 345.762 170.847 345.636 171.243C345.509 171.639 345.09 171.853 344.699 171.721L342.851 171.099L343.851 172.871C344.056 173.234 343.934 173.695 343.578 173.9C343.221 174.105 342.766 173.977 342.561 173.613L341.529 171.783L341.093 173.612C340.996 174.017 340.594 174.263 340.195 174.162C339.795 174.06 339.549 173.65 339.646 173.245L340.45 169.871L339.06 167.406L337.565 170.041L338.218 173.389C338.297 173.796 338.031 174.19 337.625 174.269C337.218 174.348 336.824 174.083 336.745 173.676L336.428 172.046L335.374 173.903C335.17 174.263 334.712 174.39 334.352 174.185C333.991 173.981 333.865 173.523 334.069 173.163L335.291 171.009L333.307 171.449C332.903 171.538 332.502 171.283 332.413 170.879C332.323 170.474 332.578 170.074 332.983 169.984L336.288 169.252L337.825 166.542L334.608 166.538L332.102 168.781C331.792 169.058 331.322 169.03 331.052 168.718C330.781 168.406 330.813 167.928 331.123 167.651L332.37 166.536L330.225 166.533C329.814 166.532 329.484 166.194 329.488 165.776C329.492 165.359 329.829 165.021 330.24 165.022L332.65 165.024L331.28 163.485C331.005 163.177 331.031 162.699 331.337 162.417C331.643 162.136 332.114 162.158 332.388 162.466L334.668 165.027L337.719 165.031L336.111 162.18L332.955 161.086C332.564 160.951 332.353 160.521 332.483 160.126C332.613 159.732 333.034 159.521 333.424 159.656L334.994 160.2L333.924 158.303C333.719 157.94 333.842 157.479 334.198 157.274C334.554 157.069 335.009 157.197 335.214 157.561L336.417 159.693L337.038 157.712C337.162 157.315 337.581 157.099 337.973 157.228C338.364 157.358 338.581 157.785 338.457 158.182L337.423 161.477L339.056 164.372L340.633 161.593L339.9 157.991C339.818 157.586 340.08 157.19 340.486 157.107Z" fill="white"/>
<circle cx="286.787" cy="318.023" r="7.42114" fill="white"/>
<circle cx="244.24" cy="344.562" r="4.03833" fill="white"/>
<circle cx="354.228" cy="432.363" r="4.03833" fill="white"/>
<circle cx="42.0857" cy="504.363" r="4.03833" fill="white"/>
<path fill-rule="evenodd" clip-rule="evenodd" d="M297.34 124.848C297.746 124.766 298.142 125.028 298.224 125.434L299.24 130.429L301.789 125.935C301.994 125.575 302.451 125.448 302.812 125.653C303.172 125.857 303.298 126.315 303.094 126.675L300.477 131.288L305.057 129.919C305.453 129.8 305.871 130.026 305.99 130.422C306.109 130.819 305.883 131.237 305.486 131.356L299.408 133.173L296.051 139.089L302.546 139.097L307.528 134.563C307.835 134.284 308.306 134.308 308.579 134.617C308.851 134.927 308.823 135.405 308.516 135.685L304.763 139.1L309.893 139.106C310.304 139.107 310.634 139.446 310.63 139.863C310.625 140.28 310.289 140.618 309.878 140.618L304.683 140.611L308.142 143.982C308.437 144.27 308.445 144.748 308.159 145.05C307.873 145.353 307.402 145.364 307.106 145.077L302.521 140.609L295.839 140.601L299.083 146.35L305.421 148.486C305.812 148.618 306.027 149.046 305.9 149.442C305.774 149.838 305.355 150.052 304.963 149.92L300.189 148.311L302.748 152.848C302.954 153.212 302.831 153.673 302.475 153.878C302.119 154.083 301.664 153.954 301.458 153.591L298.866 148.996L297.736 153.738C297.639 154.143 297.237 154.389 296.838 154.288C296.438 154.186 296.192 153.775 296.289 153.371L297.788 147.084L294.661 141.541L291.353 147.373L292.566 153.598C292.645 154.005 292.379 154.399 291.973 154.478C291.566 154.557 291.172 154.292 291.093 153.885L290.215 149.378L287.529 154.112C287.325 154.472 286.867 154.599 286.507 154.394C286.147 154.19 286.02 153.732 286.225 153.372L289.079 148.341L284.209 149.42C283.805 149.51 283.405 149.254 283.315 148.85C283.225 148.446 283.481 148.045 283.885 147.956L290.076 146.584L293.471 140.598L286.454 140.589L281.786 144.766C281.477 145.043 281.007 145.015 280.736 144.703C280.466 144.391 280.498 143.913 280.808 143.636L284.216 140.586L278.813 140.58C278.402 140.579 278.073 140.241 278.077 139.823C278.081 139.406 278.417 139.068 278.828 139.068L284.496 139.075L281.141 135.305C280.866 134.997 280.892 134.519 281.198 134.238C281.504 133.956 281.975 133.978 282.249 134.287L286.514 139.078L293.276 139.086L289.771 132.874L283.892 130.837C283.502 130.702 283.291 130.272 283.421 129.877C283.551 129.482 283.972 129.272 284.362 129.407L288.654 130.894L285.958 126.116C285.753 125.753 285.876 125.292 286.232 125.087C286.588 124.882 287.043 125.01 287.248 125.374L290.076 130.386L291.598 125.536C291.722 125.139 292.141 124.923 292.532 125.052C292.924 125.182 293.141 125.609 293.017 126.006L291.083 132.171L294.658 138.507L298.113 132.415L296.754 125.733C296.672 125.327 296.934 124.931 297.34 124.848Z" fill="white"/>
<defs>
<linearGradient id="paint0_linear_102_2091" x1="309.288" y1="-1.66797" x2="309.288" y2="672.693" gradientUnits="userSpaceOnUse">
<stop stop-color="#EBA95B"/>
<stop offset="1" stop-color="#EBA95B" stop-opacity="0"/>
</linearGradient>
<linearGradient id="paint1_linear_102_2091" x1="159.273" y1="-31.0107" x2="131.501" y2="225.457" gradientUnits="userSpaceOnUse">
<stop stop-color="#F2EBE7"/>
<stop offset="0.02" stop-color="#EBE8E6"/>
<stop offset="0.18" stop-color="#BFD9E5"/>
<stop offset="0.35" stop-color="#9BCCE4"/>
<stop offset="0.51" stop-color="#7FC2E3"/>
<stop offset="0.67" stop-color="#6BBBE2"/>
<stop offset="0.84" stop-color="#5FB7E2"/>
<stop offset="1" stop-color="#5BB6E2"/>
</linearGradient>
<clipPath id="clip0_102_2091">
<rect width="259" height="397" fill="white" transform="translate(128.1 -25.4639) rotate(30)"/>
</clipPath>
</defs>
</svg>
