<svg width="326" height="349" viewBox="0 0 326 349" fill="none" xmlns="http://www.w3.org/2000/svg">
<path d="M17.6326 168.38L19.0317 176.874L27.5259 178.273L19.0317 179.672L17.6326 188.167L16.2334 179.672L7.73926 178.273L16.2334 176.874L17.6326 168.38Z" fill="#FF82FD"/>
<path d="M313.573 45.415L315.218 55.4075L325.211 57.0535L315.218 58.6994L313.573 68.6919L311.927 58.6994L301.934 57.0535L311.927 55.4075L313.573 45.415Z" fill="#FF82FD"/>
<path fill-rule="evenodd" clip-rule="evenodd" d="M38.5131 59.0152C38.919 58.9326 39.3149 59.1948 39.3975 59.6007L40.4133 64.5958L42.9625 60.1021C43.1669 59.7418 43.6246 59.6154 43.9849 59.8198C44.3452 60.0242 44.4716 60.482 44.2672 60.8422L41.6506 65.4547L46.2299 64.0857C46.6268 63.9671 47.0447 64.1926 47.1633 64.5895C47.282 64.9863 47.0564 65.4042 46.6596 65.5229L40.5811 67.34L37.225 73.256L43.719 73.2639L48.7011 68.7298C49.0085 68.4501 49.4789 68.4743 49.7518 68.784C50.0246 69.0937 49.9966 69.5716 49.6892 69.8514L45.9364 73.2666L51.066 73.2729C51.4771 73.2734 51.8069 73.6122 51.8028 74.0295C51.7987 74.4469 51.4622 74.7848 51.0511 74.7843L45.8561 74.778L49.3152 78.1483C49.6104 78.436 49.618 78.9144 49.332 79.2167C49.0461 79.5191 48.5749 79.531 48.2796 79.2433L43.6941 74.7753L37.012 74.7672L40.2559 80.5172L46.5945 82.6534C46.9856 82.7852 47.2002 83.2131 47.0738 83.6091C46.9475 84.0051 46.5279 84.2193 46.1368 84.0875L41.3623 82.4784L43.9218 87.0152C44.1269 87.3787 44.0043 87.8396 43.6481 88.0447C43.2919 88.2497 42.8369 88.1212 42.6318 87.7577L40.0396 83.163L38.9091 87.9054C38.8126 88.3102 38.4105 88.5561 38.011 88.4545C37.6114 88.353 37.3657 87.9425 37.4622 87.5376L38.9609 81.2508L35.834 75.7082L32.5259 81.5395L33.7389 87.7654C33.8181 88.172 33.5527 88.5658 33.1462 88.645C32.7396 88.7242 32.3458 88.4589 32.2666 88.0523L31.3884 83.5447L28.7028 88.2789C28.4984 88.6392 28.0406 88.7656 27.6804 88.5612C27.3201 88.3568 27.1937 87.8991 27.3981 87.5388L30.252 82.5079L25.3828 83.587C24.9784 83.6766 24.5779 83.4214 24.4883 83.017C24.3987 82.6126 24.6539 82.2121 25.0583 82.1225L31.2489 80.7506L34.6449 74.7643L27.6274 74.7557L22.9596 78.9327C22.6499 79.2098 22.1798 79.1816 21.9095 78.8695C21.6393 78.5575 21.6713 78.0798 21.981 77.8026L25.389 74.753L19.9867 74.7464C19.5757 74.7459 19.2458 74.4071 19.2499 73.9898C19.254 73.5724 19.5906 73.2345 20.0016 73.235L25.6695 73.2419L22.3139 69.4719C22.0395 69.1636 22.0652 68.6856 22.3712 68.4043C22.6772 68.1229 23.1478 68.1448 23.4222 68.453L27.6868 73.2444L34.4486 73.2526L30.9442 67.0408L25.0658 65.0038C24.6758 64.8686 24.4647 64.4389 24.5944 64.0441C24.724 63.6492 25.1454 63.4386 25.5354 63.5738L29.8273 65.061L27.1318 60.283C26.9267 59.9195 27.0492 59.4586 27.4054 59.2536C27.7617 59.0485 28.2167 59.177 28.4218 59.5405L31.2498 64.5534L32.7712 59.7026C32.8956 59.306 33.314 59.0897 33.7058 59.2195C34.0976 59.3493 34.3143 59.7761 34.1899 60.1728L32.2564 66.3376L35.8309 72.6736L39.2865 66.582L37.9276 59.8996C37.845 59.4937 38.1072 59.0977 38.5131 59.0152Z" fill="white"/>
<path fill-rule="evenodd" clip-rule="evenodd" d="M286.513 0.0151913C286.919 -0.067356 287.315 0.194777 287.397 0.600682L288.413 5.59576L290.962 1.1021C291.167 0.741822 291.625 0.615441 291.985 0.819822C292.345 1.0242 292.472 1.48195 292.267 1.84223L289.651 6.45469L294.23 5.0857C294.627 4.96706 295.045 5.1926 295.163 5.58946C295.282 5.98632 295.056 6.40421 294.66 6.52285L288.581 8.34002L285.225 14.256L291.719 14.2639L296.701 9.72984C297.009 9.45006 297.479 9.47431 297.752 9.78401C298.025 10.0937 297.997 10.5716 297.689 10.8514L293.936 14.2666L299.066 14.2729C299.477 14.2734 299.807 14.6122 299.803 15.0295C299.799 15.4469 299.462 15.7848 299.051 15.7843L293.856 15.778L297.315 19.1483C297.61 19.436 297.618 19.9144 297.332 20.2167C297.046 20.5191 296.575 20.531 296.28 20.2433L291.694 15.7753L285.012 15.7672L288.256 21.5172L294.594 23.6534C294.986 23.7852 295.2 24.2131 295.074 24.6091C294.947 25.0051 294.528 25.2193 294.137 25.0875L289.362 23.4784L291.922 28.0152C292.127 28.3787 292.004 28.8396 291.648 29.0447C291.292 29.2497 290.837 29.1212 290.632 28.7577L288.04 24.163L286.909 28.9054C286.813 29.3102 286.411 29.5561 286.011 29.4545C285.611 29.353 285.366 28.9425 285.462 28.5376L286.961 22.2508L283.834 16.7082L280.526 22.5395L281.739 28.7654C281.818 29.172 281.553 29.5658 281.146 29.645C280.74 29.7242 280.346 29.4589 280.267 29.0523L279.388 24.5447L276.703 29.2789C276.498 29.6392 276.041 29.7656 275.68 29.5612C275.32 29.3568 275.194 28.8991 275.398 28.5388L278.252 23.5079L273.383 24.587C272.978 24.6766 272.578 24.4214 272.488 24.017C272.399 23.6126 272.654 23.2121 273.058 23.1225L279.249 21.7506L282.645 15.7643L275.627 15.7557L270.96 19.9327C270.65 20.2098 270.18 20.1816 269.91 19.8695C269.639 19.5575 269.671 19.0798 269.981 18.8026L273.389 15.753L267.987 15.7464C267.576 15.7459 267.246 15.4071 267.25 14.9898C267.254 14.5724 267.591 14.2345 268.002 14.235L273.669 14.2419L270.314 10.4719C270.039 10.1636 270.065 9.6856 270.371 9.40426C270.677 9.12292 271.148 9.14476 271.422 9.45304L275.687 14.2444L282.449 14.2526L278.944 8.04075L273.066 6.00376C272.676 5.8686 272.465 5.43893 272.594 5.04406C272.724 4.64919 273.145 4.43865 273.535 4.57381L277.827 6.06105L275.132 1.28304C274.927 0.919522 275.049 0.458608 275.405 0.253565C275.762 0.0485217 276.217 0.176994 276.422 0.540517L279.25 5.55343L280.771 0.702643C280.896 0.305985 281.314 0.0896673 281.706 0.219486C282.098 0.349303 282.314 0.776098 282.19 1.17276L280.256 7.33762L283.831 13.6736L287.287 7.58201L285.928 0.899612C285.845 0.493707 286.107 0.0977387 286.513 0.0151913Z" fill="white"/>
<path d="M249.927 80L252.427 95.1775L267.605 97.6775L252.427 100.177L249.927 115.355L247.428 100.177L232.25 97.6775L247.428 95.1775L249.927 80Z" fill="#EBA95B"/>
<path d="M74.75 0L76.5178 10.7322L87.25 12.5L76.5178 14.2678L74.75 25L72.9822 14.2678L62.25 12.5L72.9822 10.7322L74.75 0Z" fill="#EBA95B"/>
<path d="M317.478 176.787H183.891V348.755H317.478V176.787Z" fill="url(#paint0_linear_87_2940)"/>
<path d="M209.813 115.499H76.2256V348.75H209.813V115.499Z" fill="url(#paint1_linear_87_2940)"/>
<path d="M134.446 217.029H0.858398V348.754H134.446V217.029Z" fill="url(#paint2_linear_87_2940)"/>
<path d="M0.858398 262.771H72.7879" stroke="#EBA95B" stroke-width="4.36589" stroke-miterlimit="10"/>
<path d="M118.099 262.771H134.446" stroke="#EBA95B" stroke-width="4.36589" stroke-miterlimit="10"/>
<path d="M95.1753 217.029V348.75" stroke="#EBA95B" stroke-width="4.36589" stroke-miterlimit="10"/>
<path d="M143.02 115.499V348.75" stroke="#DD2F29" stroke-width="5.45544" stroke-miterlimit="10"/>
<path d="M209.813 154.725H76.2256" stroke="#DD2F29" stroke-width="5.45544" stroke-miterlimit="10"/>
<path d="M95.1748 261.19C99.8218 251.909 108.812 249.141 113.397 251.963C117.401 254.431 118.895 261.695 116.2 265.401C113.147 269.6 103.884 270.359 95.7754 263.596" stroke="#EBA95B" stroke-width="4.36589" stroke-miterlimit="10"/>
<path d="M95.175 261.19C90.528 251.909 81.5383 249.141 76.9529 251.963C72.9489 254.431 71.4551 261.695 74.1501 265.401C77.2032 269.6 86.4663 270.359 94.5744 263.596" stroke="#EBA95B" stroke-width="4.36589" stroke-miterlimit="10"/>
<path d="M95.1749 260.989C95.0286 262.543 94.5166 266.954 90.9707 270.617C83.983 277.827 76.3484 278.749 74.9316 279.327" stroke="#EBA95B" stroke-width="4.36589" stroke-miterlimit="10"/>
<path d="M95.1748 260.989C95.3211 262.543 95.8332 266.954 99.379 270.617C106.367 277.827 114.001 278.749 115.418 279.327" stroke="#EBA95B" stroke-width="4.36589" stroke-miterlimit="10"/>
<path d="M209.812 235.141H317.478" stroke="#F2EBE7" stroke-width="5.45544" stroke-miterlimit="10"/>
<path d="M247.824 176.787V348.751" stroke="#F2EBE7" stroke-width="5.45544" stroke-miterlimit="10"/>
<path d="M143.02 169.257V137.628" stroke="#EBA95B" stroke-width="4.36589" stroke-miterlimit="10"/>
<path d="M170.293 171.775L115.746 140.234" stroke="#DD2F29" stroke-width="5.45544" stroke-miterlimit="10"/>
<path d="M143.02 187.545V124.465" stroke="#DD2F29" stroke-width="5.45544" stroke-miterlimit="10"/>
<path d="M170.293 140.234L115.746 171.775" stroke="#DD2F29" stroke-width="5.45544" stroke-miterlimit="10"/>
<path d="M268.013 259.347L227.631 210.938" stroke="#F2EBE7" stroke-width="5.45544" stroke-miterlimit="10"/>
<path d="M268.013 210.938L227.631 259.347" stroke="#F2EBE7" stroke-width="5.45544" stroke-miterlimit="10"/>
<defs>
<linearGradient id="paint0_linear_87_2940" x1="250.684" y1="176.787" x2="250.684" y2="348.755" gradientUnits="userSpaceOnUse">
<stop stop-color="#5BB6E2"/>
<stop offset="1" stop-color="#339DD0"/>
</linearGradient>
<linearGradient id="paint1_linear_87_2940" x1="143.019" y1="115.499" x2="143.019" y2="348.75" gradientUnits="userSpaceOnUse">
<stop stop-color="#EBA95B"/>
<stop offset="1" stop-color="#DB8826"/>
</linearGradient>
<linearGradient id="paint2_linear_87_2940" x1="67.652" y1="217.029" x2="67.652" y2="348.754" gradientUnits="userSpaceOnUse">
<stop stop-color="#F2EBE7"/>
<stop offset="1" stop-color="#EDD7BC"/>
</linearGradient>
</defs>
</svg>
