<svg width="60" height="91" viewBox="0 0 60 91" fill="none" xmlns="http://www.w3.org/2000/svg">
<g id="img_santa">
<path id="Vector" d="M20.3153 4.09082L5.0127 48.6837L51.2809 39.6395L20.3153 4.09082Z" fill="url(#paint0_linear_102_1924)"/>
<path id="Vector_2" d="M49.5188 42.7734V63.736C49.5188 63.8161 49.5188 63.8962 49.5167 63.9762C49.3881 71.7835 43.0201 78.0714 35.1813 78.0714H21.6782C14.6338 78.0714 8.77568 72.9909 7.57035 66.2942C7.42074 65.4639 7.34277 64.6084 7.34277 63.736V42.7734H49.5188Z" fill="#EFE5DF"/>
<path id="Vector_3" d="M20.8731 14.1563C24.7822 14.1563 27.9512 10.9873 27.9512 7.07814C27.9512 3.16899 24.7822 0 20.8731 0C16.9639 0 13.7949 3.16899 13.7949 7.07814C13.7949 10.9873 16.9639 14.1563 20.8731 14.1563Z" fill="#F7F7F7"/>
<path id="Vector_4" d="M49.5171 63.9748C49.3886 71.782 43.0206 78.07 35.1817 78.07H21.6786C14.6342 78.07 8.77613 72.9895 7.5708 66.2927C12.7714 62.0762 20.998 59.3516 30.2571 59.3516C37.6872 59.3516 44.4493 61.1048 49.5171 63.9748Z" fill="#F7F7F7"/>
<path id="Vector_5" d="M44.6932 34.0365L7.07893 41.3888C3.71866 42.0457 1.52709 45.3022 2.18391 48.6624L3.01908 52.9351C3.6759 56.2953 6.93239 58.4869 10.2927 57.8301L47.9069 50.4777C51.2672 49.8209 53.4588 46.5644 52.8019 43.2042L51.9668 38.9315C51.31 35.5713 48.0535 33.3797 44.6932 34.0365Z" fill="#F7F7F7"/>
<path id="Vector_6" d="M33.1899 55.2393L36.5868 56.3877" stroke="#2D2D2D" stroke-width="1.19479" stroke-miterlimit="10" stroke-linecap="round"/>
<path id="Vector_7" d="M27.37 55.5537L23.9731 56.7042" stroke="#2D2D2D" stroke-width="1.19479" stroke-miterlimit="10" stroke-linecap="round"/>
<path id="Vector_8" d="M31.2994 63.5753C33.0404 63.5753 34.4518 62.1639 34.4518 60.4229C34.4518 58.6819 33.0404 57.2705 31.2994 57.2705C29.5584 57.2705 28.147 58.6819 28.147 60.4229C28.147 62.1639 29.5584 63.5753 31.2994 63.5753Z" fill="#E0CEC6"/>
<path id="Vector_9" d="M26.5399 62.0334C26.5399 63.4515 25.3915 64.6 23.9733 64.6C22.5552 64.6 21.4067 63.4515 21.4067 62.0334C21.4067 60.2865 23.9733 57.998 23.9733 57.998C23.9733 57.998 26.5399 60.1706 26.5399 62.0334Z" fill="#5BB6E2"/>
<g id="Group 26086266">
<path id="Vector_10" d="M22.4073 65.1004C18.2258 62.6862 13.0397 63.844 10.8234 67.6828L8.15542 72.3038L7.64128 71.1021C7.07308 69.7755 5.50831 69.0546 4.16235 69.5028C2.81639 69.9511 2.17747 71.4018 2.74567 72.7284L4.08443 75.8633C4.33517 76.4519 4.78196 76.9194 5.31974 77.22L4.81156 78.1002L19.9511 86.841L25.9649 76.4248C28.1813 72.5859 26.5888 67.5146 22.4073 65.1004Z" fill="#60B8E3"/>
<path id="Vector_11" d="M20.0788 83.9485L6.18346 75.9261C4.84921 75.1557 3.1431 75.6129 2.37277 76.9471L2.09381 77.4303C1.32347 78.7646 1.78062 80.4707 3.11488 81.241L17.0102 89.2635C18.3445 90.0338 20.0506 89.5767 20.8209 88.2424L21.0999 87.7592C21.8702 86.425 21.4131 84.7189 20.0788 83.9485Z" fill="#F7F7F7"/>
</g>
<g id="Group 26086267">
<path id="Vector_12" d="M37.5512 62.3436C41.7327 59.9294 46.9188 61.0871 49.1351 64.9259L51.8031 69.547L52.3172 68.3453C52.8854 67.0187 54.4502 66.2977 55.7962 66.746C57.1421 67.1943 57.781 68.645 57.2128 69.9715L55.8741 73.1065C55.6233 73.695 55.1765 74.1625 54.6388 74.4632L55.1469 75.3434L40.0074 84.0842L33.9936 73.6679C31.7772 69.8291 33.3697 64.7577 37.5512 62.3436Z" fill="#60B8E3"/>
<path id="Vector_13" d="M39.8807 81.1917L53.776 73.1692C55.1103 72.3989 56.8164 72.856 57.5867 74.1903L57.8657 74.6735C58.636 76.0077 58.1789 77.7138 56.8446 78.4842L42.9492 86.5066C41.615 87.277 39.9089 86.8198 39.1386 85.4856L38.8596 85.0024C38.0893 83.6681 38.5464 81.962 39.8807 81.1917Z" fill="#F7F7F7"/>
</g>
</g>
<defs>
<linearGradient id="paint0_linear_102_1924" x1="6.84809" y1="-4.00932" x2="27.3576" y2="42.3747" gradientUnits="userSpaceOnUse">
<stop stop-color="#F2EBE7"/>
<stop offset="0.02" stop-color="#EBE8E6"/>
<stop offset="0.18" stop-color="#BFD9E5"/>
<stop offset="0.35" stop-color="#9BCCE4"/>
<stop offset="0.51" stop-color="#7FC2E3"/>
<stop offset="0.67" stop-color="#6BBBE2"/>
<stop offset="0.84" stop-color="#5FB7E2"/>
<stop offset="1" stop-color="#5BB6E2"/>
</linearGradient>
</defs>
</svg>
