<svg width="343" height="144" viewBox="0 0 343 144" fill="none" xmlns="http://www.w3.org/2000/svg">
<rect width="343" height="144" rx="6" fill="#DE332E"/>
<rect width="343" height="144" rx="6" fill="#DE332E"/>
<g opacity="0.5">
<path d="M0 108L49 108" stroke="#EBA95B" stroke-width="4.36589" stroke-miterlimit="10"/>
<path d="M94 108H343" stroke="#EBA95B" stroke-width="4.36589" stroke-miterlimit="10"/>
<path d="M71 0V144" stroke="#EBA95B" stroke-width="4.36589" stroke-miterlimit="10"/>
<path d="M71.3167 106.227C75.9636 96.9324 84.9533 94.1598 89.5387 96.9865C93.5427 99.4579 95.0365 106.733 92.3415 110.444C89.2884 114.649 80.0253 115.41 71.9172 108.637" stroke="#EBA95B" stroke-width="4.36589" stroke-miterlimit="10"/>
<path d="M71.3166 106.227C66.6696 96.9324 57.6799 94.1598 53.0945 96.9865C49.0905 99.4579 47.5967 106.733 50.2917 110.444C53.3448 114.649 62.6079 115.41 70.716 108.637" stroke="#EBA95B" stroke-width="4.36589" stroke-miterlimit="10"/>
<path d="M71.3165 106.026C71.1702 107.583 70.6582 112 67.1123 115.669C60.1246 122.89 52.49 123.813 51.0732 124.392" stroke="#EBA95B" stroke-width="4.36589" stroke-miterlimit="10"/>
<path d="M71.3164 106.026C71.4627 107.583 71.9748 112 75.5206 115.669C82.5084 122.89 90.1429 123.813 91.5597 124.392" stroke="#EBA95B" stroke-width="4.36589" stroke-miterlimit="10"/>
</g>
</svg>
