<svg width="614" height="614" viewBox="0 0 614 614" fill="none" xmlns="http://www.w3.org/2000/svg">
<rect width="614" height="614" rx="72" fill="#DE332E"/>
<g clip-path="url(#clip0_112_8369)">
<path d="M444 309V439.059C444 439.555 444 440.052 443.987 440.549C443.188 488.988 403.63 528 354.934 528H271.053C227.292 528 190.901 496.479 183.414 454.93C182.484 449.779 182 444.471 182 439.059V309H444Z" fill="#EFE5DF"/>
<path d="M262.252 67L167 345L455 288.617L262.252 67Z" fill="url(#paint0_linear_112_8369)"/>
<path d="M266 130C290.301 130 310 110.301 310 86C310 61.6995 290.301 42 266 42C241.699 42 222 61.6995 222 86C222 110.301 241.699 130 266 130Z" fill="#F7F7F7"/>
<path d="M296.5 403C302.851 403 308 397.851 308 391.5C308 385.149 302.851 380 296.5 380C290.149 380 285 385.149 285 391.5C285 397.851 290.149 403 296.5 403Z" fill="#2D2D2D"/>
<path d="M352.5 403C358.851 403 364 397.851 364 391.5C364 385.149 358.851 380 352.5 380C346.149 380 341 385.149 341 391.5C341 397.851 346.149 403 352.5 403Z" fill="#2D2D2D"/>
<path d="M444 440.651C443.2 489.033 403.577 528 354.802 528H270.782C226.95 528 190.5 496.516 183 455.015C215.359 428.885 266.547 412 324.16 412C370.391 412 412.467 422.865 444 440.651Z" fill="#F7F7F7"/>
<path d="M329.5 438C340.27 438 349 429.27 349 418.5C349 407.73 340.27 399 329.5 399C318.73 399 310 407.73 310 418.5C310 429.27 318.73 438 329.5 438Z" fill="#E0CEC6"/>
<path d="M414.349 253.867L180.781 299.602C159.915 303.688 146.3 323.912 150.371 344.774L155.547 371.301C159.617 392.163 179.832 405.763 200.698 401.677L434.266 355.942C455.132 351.856 468.747 331.632 464.676 310.769L459.5 284.243C455.429 263.381 435.214 249.781 414.349 253.867Z" fill="#F7F7F7"/>
<path d="M353 442.061C353 450.868 345.841 458 337 458C328.159 458 321 450.868 321 442.061C321 431.212 337 417 337 417C337 417 353 430.492 353 442.061Z" fill="#5BB6E2"/>
</g>
<defs>
<linearGradient id="paint0_linear_112_8369" x1="178.425" y1="16.5023" x2="306.417" y2="305.523" gradientUnits="userSpaceOnUse">
<stop stop-color="#F2EBE7"/>
<stop offset="0.02" stop-color="#EBE8E6"/>
<stop offset="0.18" stop-color="#BFD9E5"/>
<stop offset="0.35" stop-color="#9BCCE4"/>
<stop offset="0.51" stop-color="#7FC2E3"/>
<stop offset="0.67" stop-color="#6BBBE2"/>
<stop offset="0.84" stop-color="#5FB7E2"/>
<stop offset="1" stop-color="#5BB6E2"/>
</linearGradient>
<clipPath id="clip0_112_8369">
<rect width="316" height="486" fill="white" transform="translate(149 42)"/>
</clipPath>
</defs>
</svg>
